<svg width="24" height="24" viewBox="0 0 24 24" fill="none" xmlns="http://www.w3.org/2000/svg">
<path fill-rule="evenodd" clip-rule="evenodd" d="M14.395 4.55298C14.3316 4.42601 14.2419 4.31399 14.1319 4.22436C14.0219 4.13473 13.8941 4.06954 13.7569 4.03312C13.6198 3.99671 13.4764 3.9899 13.3364 4.01315C13.1965 4.0364 13.063 4.08918 12.945 4.16798C12.6 4.39798 12.331 4.72598 12.123 5.04798C11.909 5.37798 11.72 5.76098 11.553 6.16398C11.219 6.96798 10.939 7.93198 10.713 8.89798C10.4397 10.0785 10.235 11.2738 10.1 12.478C9.69314 12.2157 9.36622 11.8466 9.15501 11.411C8.82701 10.731 8.75699 9.87698 8.75699 8.75698C8.75695 8.55923 8.69829 8.36593 8.58841 8.20152C8.47852 8.03711 8.32235 7.90897 8.13965 7.8333C7.95695 7.75763 7.75593 7.73783 7.56197 7.7764C7.36802 7.81496 7.18986 7.91017 7.05001 8.04998C6.39917 8.69942 5.88303 9.47102 5.53123 10.3205C5.17943 11.17 4.9989 12.0805 5.00001 13C5.00009 14.1511 5.28404 15.2844 5.82673 16.2996C6.36943 17.3148 7.1541 18.1804 8.11124 18.8199C9.06839 19.4594 10.1685 19.853 11.3141 19.9658C12.4596 20.0786 13.6154 19.9071 14.6789 19.4666C15.7423 19.0261 16.6808 18.3301 17.4111 17.4403C18.1413 16.5504 18.6409 15.4942 18.8655 14.3652C19.0901 13.2362 19.0328 12.0693 18.6987 10.9677C18.3645 9.86616 17.7639 8.86399 16.95 8.04998C16.358 7.45898 15.97 7.06498 15.602 6.58298C15.239 6.10698 14.878 5.51998 14.395 4.55298ZM14.12 17.12C13.7005 17.539 13.1661 17.8243 12.5846 17.9398C12.003 18.0554 11.4002 17.996 10.8523 17.7691C10.3045 17.5423 9.83612 17.1582 9.50644 16.6653C9.17676 16.1724 9.00052 15.5929 9 15C9 15 9.87901 15.5 11.5 15.5C11.5 14.5 12 11.5 12.75 11C13.25 12 13.536 12.293 14.121 12.879C14.4 13.1572 14.6213 13.4878 14.7722 13.8517C14.923 14.2157 15.0005 14.606 15 15C15.0005 15.394 14.923 15.7842 14.7722 16.1482C14.6213 16.5122 14.4 16.8428 14.121 17.121L14.12 17.12Z" fill="#84919A"/>
</svg>
