<svg width="16" height="14" viewBox="0 0 16 14" fill="none" xmlns="http://www.w3.org/2000/svg">
<path d="M6 6C6.7956 6 7.5587 5.6839 8.1213 5.1213C8.6839 4.55871 9 3.79565 9 3C9 2.20435 8.6839 1.44129 8.1213 0.87868C7.5587 0.31607 6.7956 0 6 0C5.20435 0 4.44129 0.31607 3.87868 0.87868C3.31607 1.44129 3 2.20435 3 3C3 3.79565 3.31607 4.55871 3.87868 5.1213C4.44129 5.6839 5.20435 6 6 6ZM6 8C7.5913 8 9.1174 8.6321 10.2426 9.7574C11.3679 10.8826 12 12.4087 12 14H0C0 12.4087 0.63214 10.8826 1.75736 9.7574C2.88258 8.6321 4.4087 8 6 8ZM14 4C14 3.73478 13.8946 3.48043 13.7071 3.29289C13.5196 3.10536 13.2652 3 13 3C12.7348 3 12.4804 3.10536 12.2929 3.29289C12.1054 3.48043 12 3.73478 12 4V5H11C10.7348 5 10.4804 5.1054 10.2929 5.2929C10.1054 5.4804 10 5.7348 10 6C10 6.2652 10.1054 6.5196 10.2929 6.7071C10.4804 6.8946 10.7348 7 11 7H12V8C12 8.2652 12.1054 8.5196 12.2929 8.7071C12.4804 8.8946 12.7348 9 13 9C13.2652 9 13.5196 8.8946 13.7071 8.7071C13.8946 8.5196 14 8.2652 14 8V7H15C15.2652 7 15.5196 6.8946 15.7071 6.7071C15.8946 6.5196 16 6.2652 16 6C16 5.7348 15.8946 5.4804 15.7071 5.2929C15.5196 5.1054 15.2652 5 15 5H14V4Z" fill="#252C32"/>
</svg>
