<svg width="24" height="24" viewBox="0 0 24 24" fill="none" xmlns="http://www.w3.org/2000/svg">
<path d="M11.049 4.92699C11.349 4.00599 12.652 4.00599 12.951 4.92699L14.021 8.21899C14.0863 8.41948 14.2134 8.59417 14.384 8.71809C14.5547 8.84202 14.7601 8.90883 14.971 8.90899H18.433C19.402 8.90899 19.804 10.149 19.021 10.719L16.221 12.753C16.05 12.877 15.9227 13.052 15.8573 13.2528C15.7919 13.4537 15.7918 13.6701 15.857 13.871L16.927 17.163C17.227 18.084 16.172 18.851 15.387 18.281L12.587 16.247C12.4162 16.123 12.2105 16.0562 11.9995 16.0562C11.7884 16.0562 11.5828 16.123 11.412 16.247L8.61197 18.281C7.82797 18.851 6.77397 18.084 7.07297 17.163L8.14297 13.871C8.20815 13.6701 8.20803 13.4537 8.14264 13.2528C8.07725 13.052 7.94994 12.877 7.77897 12.753L4.97997 10.72C4.19697 10.15 4.59997 8.90999 5.56797 8.90999H9.02897C9.24002 8.91004 9.44568 8.84332 9.6165 8.71938C9.78732 8.59544 9.91455 8.42064 9.97997 8.21999L11.05 4.92799L11.049 4.92699Z" fill="#84919A"/>
</svg>
