<svg width="24" height="24" viewBox="0 0 24 24" fill="none" xmlns="http://www.w3.org/2000/svg">
<path fill-rule="evenodd" clip-rule="evenodd" d="M19.707 11.293C19.8945 11.4805 19.9998 11.7348 19.9998 12C19.9998 12.2652 19.8945 12.5195 19.707 12.707L12.707 19.707C12.5195 19.8945 12.2652 19.9998 12 19.9998C11.7348 19.9998 11.4805 19.8945 11.293 19.707L4.293 12.707C4.2 12.6143 4.12624 12.5041 4.07596 12.3827C4.02568 12.2614 3.99986 12.1313 4 12V7C4 6.20435 4.31607 5.44129 4.87868 4.87868C5.44129 4.31607 6.20435 4 7 4H12C12.256 4 12.512 4.098 12.707 4.293L19.707 11.293ZM7 8C7.26522 8 7.51957 7.89464 7.70711 7.70711C7.89464 7.51957 8 7.26522 8 7C8 6.73478 7.89464 6.48043 7.70711 6.29289C7.51957 6.10536 7.26522 6 7 6C6.73478 6 6.48043 6.10536 6.29289 6.29289C6.10536 6.48043 6 6.73478 6 7C6 7.26522 6.10536 7.51957 6.29289 7.70711C6.48043 7.89464 6.73478 8 7 8Z" fill="#5B6871"/>
</svg>
