<svg width="7" height="12" viewBox="0 0 7 12" fill="none" xmlns="http://www.w3.org/2000/svg">
<path d="M2.16301 0.516C2.58101 0.924 6.66501 5.211 6.66501 5.211C6.77086 5.31313 6.85505 5.43555 6.91255 5.57094C6.97005 5.70632 6.99969 5.85191 6.99969 5.999C6.99969 6.14609 6.97005 6.29168 6.91255 6.42706C6.85505 6.56245 6.77086 6.68487 6.66501 6.787C6.66501 6.787 2.58101 11.076 2.16301 11.482C1.74501 11.89 0.993005 11.918 0.548005 11.482C0.102005 11.048 0.0670052 10.441 0.548005 9.908L4.29501 6L0.548005 2.092C0.0670052 1.559 0.102005 0.951 0.548005 0.516C0.993005 0.0799996 1.74501 0.107 2.16301 0.516Z" fill="#252C32"/>
</svg>
