<svg width="72" height="72" viewBox="0 0 72 72" fill="none" xmlns="http://www.w3.org/2000/svg">
<path fill-rule="evenodd" clip-rule="evenodd" d="M36 60C42.3651 60 48.4698 57.4713 52.9707 52.9707C57.4713 48.4698 60 42.3651 60 36C60 29.6348 57.4713 23.5303 52.9707 19.0295C48.4698 14.5286 42.3651 12 36 12C29.6348 12 23.5303 14.5286 19.0295 19.0295C14.5286 23.5303 12 29.6348 12 36C12 42.3651 14.5286 48.4698 19.0295 52.9707C23.5303 57.4713 29.6348 60 36 60ZM47.121 32.121C47.6676 31.5552 47.97 30.7974 47.9631 30.0108C47.9562 29.2242 47.6406 28.4718 47.0844 27.9155C46.5282 27.3593 45.7758 27.0438 44.9892 27.037C44.2026 27.0302 43.4448 27.3325 42.879 27.879L33 37.758L29.121 33.879C28.5552 33.3324 27.7974 33.03 27.0108 33.0369C26.2242 33.0438 25.4718 33.3594 24.9155 33.9156C24.3593 34.4718 24.0438 35.2242 24.037 36.0108C24.0302 36.7974 24.3325 37.5552 24.879 38.121L30.879 44.121C31.4415 44.6835 32.2044 44.9994 33 44.9994C33.7956 44.9994 34.5585 44.6835 35.121 44.121L47.121 32.121Z" fill="#47D16C"/>
</svg>
