<svg width="24" height="24" viewBox="0 0 24 24" fill="none" xmlns="http://www.w3.org/2000/svg">
<path fill-rule="evenodd" clip-rule="evenodd" d="M6.29303 6.29299C6.48056 6.10552 6.73487 6.0002 7.00003 6.0002C7.26519 6.0002 7.5195 6.10552 7.70703 6.29299L12 10.586L16.293 6.29299C16.3853 6.19748 16.4956 6.1213 16.6176 6.06889C16.7396 6.01648 16.8709 5.98889 17.0036 5.98774C17.1364 5.98659 17.2681 6.01189 17.391 6.06217C17.5139 6.11245 17.6255 6.1867 17.7194 6.28059C17.8133 6.37449 17.8876 6.48614 17.9379 6.60904C17.9881 6.73193 18.0134 6.86361 18.0123 6.99639C18.0111 7.12917 17.9835 7.26039 17.9311 7.38239C17.8787 7.5044 17.8025 7.61474 17.707 7.70699L13.414 12L17.707 16.293C17.8892 16.4816 17.99 16.7342 17.9877 16.9964C17.9854 17.2586 17.8803 17.5094 17.6948 17.6948C17.5094 17.8802 17.2586 17.9854 16.9964 17.9877C16.7342 17.9899 16.4816 17.8891 16.293 17.707L12 13.414L7.70703 17.707C7.51843 17.8891 7.26583 17.9899 7.00363 17.9877C6.74143 17.9854 6.49062 17.8802 6.30521 17.6948C6.1198 17.5094 6.01463 17.2586 6.01236 16.9964C6.01008 16.7342 6.11087 16.4816 6.29303 16.293L10.586 12L6.29303 7.70699C6.10556 7.51946 6.00024 7.26515 6.00024 6.99999C6.00024 6.73483 6.10556 6.48052 6.29303 6.29299Z" fill="#6E7C87"/>
</svg>
