<svg width="24" height="24" viewBox="0 0 24 24" fill="none" xmlns="http://www.w3.org/2000/svg">
<path fill-rule="evenodd" clip-rule="evenodd" d="M5 19C5 18.7348 5.10536 18.4804 5.29289 18.2929C5.48043 18.1054 5.73478 18 6 18H18C18.2652 18 18.5196 18.1054 18.7071 18.2929C18.8946 18.4804 19 18.7348 19 19C19 19.2652 18.8946 19.5196 18.7071 19.7071C18.5196 19.8946 18.2652 20 18 20H6C5.73478 20 5.48043 19.8946 5.29289 19.7071C5.10536 19.5196 5 19.2652 5 19ZM8.293 11.293C8.48053 11.1055 8.73484 11.0002 9 11.0002C9.26516 11.0002 9.51947 11.1055 9.707 11.293L11 12.586V5C11 4.73478 11.1054 4.48043 11.2929 4.29289C11.4804 4.10536 11.7348 4 12 4C12.2652 4 12.5196 4.10536 12.7071 4.29289C12.8946 4.48043 13 4.73478 13 5V12.586L14.293 11.293C14.3852 11.1975 14.4956 11.1213 14.6176 11.0689C14.7396 11.0165 14.8708 10.9889 15.0036 10.9877C15.1364 10.9866 15.2681 11.0119 15.391 11.0622C15.5139 11.1125 15.6255 11.1867 15.7194 11.2806C15.8133 11.3745 15.8875 11.4861 15.9378 11.609C15.9881 11.7319 16.0134 11.8636 16.0123 11.9964C16.0111 12.1292 15.9835 12.2604 15.9311 12.3824C15.8787 12.5044 15.8025 12.6148 15.707 12.707L12.707 15.707C12.5195 15.8945 12.2652 15.9998 12 15.9998C11.7348 15.9998 11.4805 15.8945 11.293 15.707L8.293 12.707C8.10553 12.5195 8.00021 12.2652 8.00021 12C8.00021 11.7348 8.10553 11.4805 8.293 11.293Z" fill="#252C32"/>
</svg>
