<svg width="24" height="24" viewBox="0 0 24 24" fill="none" xmlns="http://www.w3.org/2000/svg">
<path fill-rule="evenodd" clip-rule="evenodd" d="M5 5C5 4.73478 5.10536 4.48043 5.29289 4.29289C5.48043 4.10536 5.73478 4 6 4H18C18.2652 4 18.5196 4.10536 18.7071 4.29289C18.8946 4.48043 19 4.73478 19 5V8C18.9999 8.26519 18.8946 8.51951 18.707 8.707L14 13.414V17C13.9999 17.2652 13.8945 17.5195 13.707 17.707L11.707 19.707C11.5671 19.8468 11.389 19.942 11.195 19.9806C11.0011 20.0192 10.8 19.9993 10.6173 19.9237C10.4346 19.848 10.2785 19.7199 10.1686 19.5555C10.0587 19.391 10 19.1978 10 19V13.414L5.293 8.707C5.10545 8.51951 5.00006 8.26519 5 8V5Z" fill="#252C32"/>
</svg>
