<svg width="24" height="24" viewBox="0 0 24 24" fill="none" xmlns="http://www.w3.org/2000/svg">
<path fill-rule="evenodd" clip-rule="evenodd" d="M14.5861 6.58598C14.7706 6.39496 14.9913 6.2426 15.2353 6.13778C15.4793 6.03296 15.7417 5.97779 16.0073 5.97548C16.2728 5.97317 16.5362 6.02378 16.782 6.12434C17.0278 6.2249 17.2511 6.37341 17.4389 6.56119C17.6267 6.74898 17.7752 6.97228 17.8757 7.21807C17.9763 7.46387 18.0269 7.72722 18.0246 7.99278C18.0223 8.25834 17.9671 8.52078 17.8623 8.76479C17.7575 9.0088 17.6051 9.22949 17.4141 9.41398L14.4141 12.414C14.039 12.7889 13.5304 12.9996 13.0001 12.9996C12.4698 12.9996 11.9611 12.7889 11.5861 12.414C11.3975 12.2318 11.1449 12.131 10.8827 12.1333C10.6205 12.1356 10.3697 12.2408 10.1843 12.4262C9.99885 12.6116 9.89368 12.8624 9.89141 13.1246C9.88913 13.3868 9.98992 13.6394 10.1721 13.828C10.9222 14.5779 11.9394 14.9991 13.0001 14.9991C14.0607 14.9991 15.078 14.5779 15.8281 13.828L18.8281 10.828C19.5567 10.0736 19.9599 9.06316 19.9508 8.01438C19.9417 6.96559 19.521 5.96234 18.7794 5.22071C18.0377 4.47907 17.0345 4.0584 15.9857 4.04928C14.9369 4.04017 13.9265 4.44335 13.1721 5.17198L11.6721 6.67198C11.5766 6.76423 11.5004 6.87457 11.448 6.99658C11.3956 7.11858 11.368 7.2498 11.3668 7.38258C11.3657 7.51536 11.391 7.64704 11.4413 7.76993C11.4915 7.89283 11.5658 8.00448 11.6597 8.09838C11.7536 8.19227 11.8652 8.26652 11.9881 8.3168C12.111 8.36708 12.2427 8.39239 12.3755 8.39123C12.5083 8.39008 12.6395 8.36249 12.7615 8.31008C12.8835 8.25767 12.9938 8.18149 13.0861 8.08598L14.5861 6.58598ZM9.58608 11.586C9.96114 11.211 10.4698 11.0004 11.0001 11.0004C11.5304 11.0004 12.039 11.211 12.4141 11.586C12.5063 11.6815 12.6167 11.7577 12.7387 11.8101C12.8607 11.8625 12.9919 11.8901 13.1247 11.8912C13.2575 11.8924 13.3891 11.8671 13.512 11.8168C13.6349 11.7665 13.7466 11.6923 13.8405 11.5984C13.9344 11.5045 14.0086 11.3928 14.0589 11.2699C14.1092 11.147 14.1345 11.0154 14.1333 10.8826C14.1322 10.7498 14.1046 10.6186 14.0522 10.4966C13.9998 10.3746 13.9236 10.2642 13.8281 10.172C13.078 9.4221 12.0607 9.00083 11.0001 9.00083C9.93942 9.00083 8.92219 9.4221 8.17208 10.172L5.17208 13.172C4.79004 13.541 4.48531 13.9823 4.27568 14.4704C4.06604 14.9584 3.95569 15.4833 3.95108 16.0144C3.94646 16.5455 4.04767 17.0722 4.24879 17.5638C4.44992 18.0554 4.74693 18.502 5.1225 18.8776C5.49807 19.2531 5.94468 19.5501 6.43626 19.7513C6.92785 19.9524 7.45457 20.0536 7.98569 20.049C8.5168 20.0444 9.04168 19.934 9.5297 19.7244C10.0177 19.5148 10.4591 19.21 10.8281 18.828L12.3281 17.328C12.4236 17.2357 12.4998 17.1254 12.5522 17.0034C12.6046 16.8814 12.6322 16.7502 12.6333 16.6174C12.6345 16.4846 12.6092 16.3529 12.5589 16.23C12.5086 16.1071 12.4344 15.9955 12.3405 15.9016C12.2466 15.8077 12.1349 15.7334 12.012 15.6832C11.8891 15.6329 11.7575 15.6076 11.6247 15.6087C11.4919 15.6099 11.3607 15.6375 11.2387 15.6899C11.1167 15.7423 11.0063 15.8185 10.9141 15.914L9.41408 17.414C9.22959 17.605 9.0089 17.7574 8.76489 17.8622C8.52088 17.967 8.25844 18.0222 7.99288 18.0245C7.72732 18.0268 7.46397 17.9762 7.21817 17.8756C6.97238 17.7751 6.74908 17.6266 6.56129 17.4388C6.37351 17.251 6.225 17.0277 6.12444 16.7819C6.02388 16.5361 5.97327 16.2727 5.97558 16.0072C5.97789 15.7416 6.03306 15.4792 6.13788 15.2352C6.2427 14.9912 6.39506 14.7705 6.58608 14.586L9.58608 11.586Z" fill="#5B6871"/>
</svg>
