<svg width="24" height="24" viewBox="0 0 24 24" fill="none" xmlns="http://www.w3.org/2000/svg">
<path fill-rule="evenodd" clip-rule="evenodd" d="M8 7V8H6C5.46957 8 4.96086 8.21071 4.58579 8.58579C4.21071 8.96086 4 9.46957 4 10V13.57C6.56037 14.5188 9.2695 15.003 12 15C14.7305 15.003 17.4396 14.5187 20 13.57V10C20 9.46957 19.7893 8.96086 19.4142 8.58579C19.0391 8.21071 18.5304 8 18 8H16V7C16 6.20435 15.6839 5.44129 15.1213 4.87868C14.5587 4.31607 13.7956 4 13 4H11C10.2044 4 9.44129 4.31607 8.87868 4.87868C8.31607 5.44129 8 6.20435 8 7ZM10.2929 6.29289C10.1054 6.48043 10 6.73478 10 7V8H14V7C14 6.73478 13.8946 6.48043 13.7071 6.29289C13.5196 6.10536 13.2652 6 13 6H11C10.7348 6 10.4804 6.10536 10.2929 6.29289ZM11.2929 11.2929C11.1054 11.4804 11 11.7348 11 12C11 12.2652 11.1054 12.5196 11.2929 12.7071C11.4804 12.8946 11.7348 13 12 13H12.01C12.2752 13 12.5296 12.8946 12.7171 12.7071C12.9046 12.5196 13.01 12.2652 13.01 12C13.01 11.7348 12.9046 11.4804 12.7171 11.2929C12.5296 11.1054 12.2752 11 12.01 11H12C11.7348 11 11.4804 11.1054 11.2929 11.2929Z" fill="#5B6871"/>
<path d="M4 18V15.692C6.513 16.54 9.204 17 12 17C14.7201 17.0026 17.4224 16.5608 20 15.692V18C20 18.5304 19.7893 19.0392 19.4142 19.4142C19.0391 19.7893 18.5304 20 18 20H6C5.46957 20 4.96086 19.7893 4.58579 19.4142C4.21071 19.0392 4 18.5304 4 18Z" fill="#5B6871"/>
</svg>
